<svg width="53" height="46" viewBox="0 0 53 46" fill="none" xmlns="http://www.w3.org/2000/svg">
<circle cx="26.5" cy="25" r="12" fill="#4310AE"/>
<path d="M21.7806 26.7207C21.9583 26.8996 22.1988 27 22.4494 27C22.7 27 22.9404 26.8996 23.1182 26.7207L26.5237 23.3204L29.8818 26.7207C30.0596 26.8996 30.3 27 30.5506 27C30.8012 27 31.0417 26.8996 31.2194 26.7207C31.3083 26.6314 31.3789 26.5252 31.427 26.4081C31.4752 26.2911 31.5 26.1655 31.5 26.0387C31.5 25.9119 31.4752 25.7864 31.427 25.6693C31.3789 25.5523 31.3083 25.446 31.2194 25.3567L27.1972 21.2841C27.1091 21.1941 27.0041 21.1226 26.8885 21.0739C26.7729 21.0251 26.6489 21 26.5237 21C26.3985 21 26.2745 21.0251 26.1589 21.0739C26.0433 21.1226 25.9384 21.1941 25.8502 21.2841L21.7806 25.3567C21.6917 25.446 21.6211 25.5523 21.573 25.6693C21.5248 25.7864 21.5 25.9119 21.5 26.0387C21.5 26.1655 21.5248 26.2911 21.573 26.4081C21.6211 26.5252 21.6917 26.6314 21.7806 26.7207Z" fill="white"/>
</svg>
