<svg width="153" height="74" viewBox="0 0 153 74" fill="none" xmlns="http://www.w3.org/2000/svg">
<path d="M8.5 58.625H9.46094V66.3281C9.46094 67.1823 9.28125 67.8932 8.92188 68.4609C8.5625 69.0286 8.07812 69.4531 7.46875 69.7344C6.86458 70.0156 6.19531 70.1562 5.46094 70.1562C4.70573 70.1562 4.02604 70.0156 3.42188 69.7344C2.81771 69.4531 2.33854 69.0286 1.98438 68.4609C1.63542 67.8932 1.46094 67.1823 1.46094 66.3281V58.625H2.41406V66.3281C2.41406 66.9896 2.54427 67.5443 2.80469 67.9922C3.0651 68.4401 3.42448 68.776 3.88281 69C4.34115 69.224 4.86719 69.3359 5.46094 69.3359C6.04948 69.3359 6.57292 69.224 7.03125 69C7.48958 68.776 7.84896 68.4401 8.10938 67.9922C8.36979 67.5443 8.5 66.9896 8.5 66.3281V58.625ZM12.8672 63.1719V73.25H11.9297V61.5469H12.8047L12.8672 63.1719ZM18.7422 65.6953V65.8594C18.7422 66.4896 18.6693 67.0677 18.5234 67.5938C18.3776 68.1198 18.1667 68.5755 17.8906 68.9609C17.6198 69.3411 17.2839 69.6354 16.8828 69.8438C16.4818 70.0521 16.026 70.1562 15.5156 70.1562C15.0104 70.1562 14.5599 70.0781 14.1641 69.9219C13.7682 69.7656 13.4271 69.5443 13.1406 69.2578C12.8594 68.9661 12.6328 68.6276 12.4609 68.2422C12.2943 67.8516 12.1771 67.4245 12.1094 66.9609V64.7969C12.1875 64.2865 12.3151 63.8229 12.4922 63.4062C12.6693 62.9896 12.8958 62.6302 13.1719 62.3281C13.4531 62.026 13.7865 61.7943 14.1719 61.6328C14.5573 61.4714 14.9974 61.3906 15.4922 61.3906C16.0078 61.3906 16.4661 61.4922 16.8672 61.6953C17.2734 61.8932 17.6146 62.1823 17.8906 62.5625C18.1719 62.9375 18.3828 63.3906 18.5234 63.9219C18.6693 64.4479 18.7422 65.0391 18.7422 65.6953ZM17.8047 65.8594V65.6953C17.8047 65.2005 17.7526 64.7422 17.6484 64.3203C17.5495 63.8984 17.3958 63.5312 17.1875 63.2188C16.9844 62.901 16.724 62.6536 16.4062 62.4766C16.0938 62.2995 15.7214 62.2109 15.2891 62.2109C14.8411 62.2109 14.4583 62.2865 14.1406 62.4375C13.8281 62.5833 13.5677 62.7786 13.3594 63.0234C13.151 63.263 12.987 63.526 12.8672 63.8125C12.7474 64.099 12.6589 64.3802 12.6016 64.6562V67.1484C12.7005 67.5443 12.8594 67.9115 13.0781 68.25C13.2969 68.5833 13.5885 68.8516 13.9531 69.0547C14.3229 69.2526 14.7734 69.3516 15.3047 69.3516C15.7318 69.3516 16.1016 69.263 16.4141 69.0859C16.7266 68.9089 16.9844 68.6615 17.1875 68.3438C17.3958 68.026 17.5495 67.6562 17.6484 67.2344C17.7526 66.8125 17.8047 66.3542 17.8047 65.8594ZM21.8594 58V70H20.9297V58H21.8594ZM23.8984 65.9062V65.6484C23.8984 65.0339 23.987 64.4661 24.1641 63.9453C24.3411 63.4245 24.5938 62.974 24.9219 62.5938C25.2552 62.2135 25.6536 61.9193 26.1172 61.7109C26.5807 61.4974 27.0964 61.3906 27.6641 61.3906C28.237 61.3906 28.7552 61.4974 29.2188 61.7109C29.6823 61.9193 30.0807 62.2135 30.4141 62.5938C30.7474 62.974 31.0026 63.4245 31.1797 63.9453C31.3568 64.4661 31.4453 65.0339 31.4453 65.6484V65.9062C31.4453 66.5208 31.3568 67.0885 31.1797 67.6094C31.0026 68.125 30.7474 68.5729 30.4141 68.9531C30.0859 69.3333 29.6901 69.6302 29.2266 69.8438C28.763 70.0521 28.2474 70.1562 27.6797 70.1562C27.1068 70.1562 26.5885 70.0521 26.125 69.8438C25.6615 69.6302 25.263 69.3333 24.9297 68.9531C24.5964 68.5729 24.3411 68.125 24.1641 67.6094C23.987 67.0885 23.8984 66.5208 23.8984 65.9062ZM24.8281 65.6484V65.9062C24.8281 66.3698 24.8906 66.8099 25.0156 67.2266C25.1406 67.638 25.3229 68.0052 25.5625 68.3281C25.8021 68.6458 26.099 68.8958 26.4531 69.0781C26.8073 69.2604 27.2161 69.3516 27.6797 69.3516C28.138 69.3516 28.5417 69.2604 28.8906 69.0781C29.2448 68.8958 29.5417 68.6458 29.7812 68.3281C30.0208 68.0052 30.2005 67.638 30.3203 67.2266C30.4453 66.8099 30.5078 66.3698 30.5078 65.9062V65.6484C30.5078 65.1901 30.4453 64.7552 30.3203 64.3438C30.2005 63.9323 30.0182 63.5651 29.7734 63.2422C29.5339 62.9193 29.237 62.6641 28.8828 62.4766C28.5286 62.2891 28.1224 62.1953 27.6641 62.1953C27.2057 62.1953 26.7995 62.2891 26.4453 62.4766C26.0964 62.6641 25.7995 62.9193 25.5547 63.2422C25.3151 63.5651 25.1328 63.9323 25.0078 64.3438C24.888 64.7552 24.8281 65.1901 24.8281 65.6484ZM38.5234 68.4844V64.125C38.5234 63.724 38.4401 63.3776 38.2734 63.0859C38.1068 62.7943 37.862 62.5703 37.5391 62.4141C37.2161 62.2578 36.8177 62.1797 36.3438 62.1797C35.9062 62.1797 35.5156 62.2578 35.1719 62.4141C34.8333 62.5651 34.5651 62.7708 34.3672 63.0312C34.1745 63.2865 34.0781 63.5703 34.0781 63.8828L33.1406 63.875C33.1406 63.5573 33.2188 63.25 33.375 62.9531C33.5312 62.6562 33.7526 62.3906 34.0391 62.1562C34.3255 61.9219 34.6667 61.737 35.0625 61.6016C35.4635 61.4609 35.9036 61.3906 36.3828 61.3906C36.987 61.3906 37.5182 61.4922 37.9766 61.6953C38.4401 61.8984 38.8021 62.2031 39.0625 62.6094C39.3229 63.0156 39.4531 63.526 39.4531 64.1406V68.2266C39.4531 68.5182 39.474 68.8203 39.5156 69.1328C39.5625 69.4453 39.6276 69.7031 39.7109 69.9062V70H38.7188C38.6562 69.8125 38.6068 69.5781 38.5703 69.2969C38.5391 69.0104 38.5234 68.7396 38.5234 68.4844ZM38.7422 65.0781L38.7578 65.7969H36.9219C36.4427 65.7969 36.013 65.8411 35.6328 65.9297C35.2578 66.013 34.9401 66.138 34.6797 66.3047C34.4193 66.4661 34.2188 66.6615 34.0781 66.8906C33.9427 67.1198 33.875 67.3802 33.875 67.6719C33.875 67.974 33.9505 68.25 34.1016 68.5C34.2578 68.75 34.4766 68.9505 34.7578 69.1016C35.0443 69.2474 35.3828 69.3203 35.7734 69.3203C36.2943 69.3203 36.7526 69.224 37.1484 69.0312C37.5495 68.8385 37.8802 68.5859 38.1406 68.2734C38.401 67.9609 38.5755 67.6198 38.6641 67.25L39.0703 67.7891C39.0026 68.0495 38.8776 68.3177 38.6953 68.5938C38.5182 68.8646 38.2865 69.1198 38 69.3594C37.7135 69.5938 37.375 69.7865 36.9844 69.9375C36.599 70.0833 36.1615 70.1562 35.6719 70.1562C35.1198 70.1562 34.638 70.0521 34.2266 69.8438C33.8203 69.6354 33.5026 69.3516 33.2734 68.9922C33.0495 68.6276 32.9375 68.2161 32.9375 67.7578C32.9375 67.3411 33.026 66.9688 33.2031 66.6406C33.3802 66.3073 33.6354 66.026 33.9688 65.7969C34.3073 65.5625 34.7135 65.3854 35.1875 65.2656C35.6667 65.1406 36.2031 65.0781 36.7969 65.0781H38.7422ZM47.4531 68.3594V58H48.3906V70H47.5156L47.4531 68.3594ZM41.5859 65.8594V65.6953C41.5859 65.0391 41.6615 64.4479 41.8125 63.9219C41.9635 63.3906 42.1797 62.9375 42.4609 62.5625C42.7474 62.1823 43.0911 61.8932 43.4922 61.6953C43.8932 61.4922 44.3464 61.3906 44.8516 61.3906C45.3464 61.3906 45.7839 61.4714 46.1641 61.6328C46.5443 61.7943 46.8698 62.026 47.1406 62.3281C47.4167 62.6302 47.638 62.9896 47.8047 63.4062C47.9766 63.8229 48.1016 64.2865 48.1797 64.7969V66.8828C48.1172 67.362 48.0026 67.8021 47.8359 68.2031C47.6693 68.599 47.4479 68.9453 47.1719 69.2422C46.8958 69.5339 46.5625 69.7604 46.1719 69.9219C45.7865 70.0781 45.3411 70.1562 44.8359 70.1562C44.3359 70.1562 43.8854 70.0521 43.4844 69.8438C43.0833 69.6354 42.7422 69.3411 42.4609 68.9609C42.1797 68.5755 41.9635 68.1198 41.8125 67.5938C41.6615 67.0677 41.5859 66.4896 41.5859 65.8594ZM42.5234 65.6953V65.8594C42.5234 66.3542 42.5729 66.8125 42.6719 67.2344C42.7708 67.6562 42.9219 68.0234 43.125 68.3359C43.3281 68.6484 43.5859 68.8932 43.8984 69.0703C44.2109 69.2474 44.5807 69.3359 45.0078 69.3359C45.5443 69.3359 45.9948 69.2344 46.3594 69.0312C46.724 68.8229 47.0156 68.5495 47.2344 68.2109C47.4531 67.8672 47.612 67.4922 47.7109 67.0859V64.6562C47.6484 64.3802 47.5573 64.099 47.4375 63.8125C47.3177 63.526 47.1536 63.263 46.9453 63.0234C46.7422 62.7786 46.4818 62.5833 46.1641 62.4375C45.8516 62.2865 45.4714 62.2109 45.0234 62.2109C44.5911 62.2109 44.2188 62.2995 43.9062 62.4766C43.5938 62.6536 43.3333 62.901 43.125 63.2188C42.9219 63.5312 42.7708 63.8984 42.6719 64.3203C42.5729 64.7422 42.5234 65.2005 42.5234 65.6953ZM59.8984 68.4844V64.125C59.8984 63.724 59.8151 63.3776 59.6484 63.0859C59.4818 62.7943 59.237 62.5703 58.9141 62.4141C58.5911 62.2578 58.1927 62.1797 57.7188 62.1797C57.2812 62.1797 56.8906 62.2578 56.5469 62.4141C56.2083 62.5651 55.9401 62.7708 55.7422 63.0312C55.5495 63.2865 55.4531 63.5703 55.4531 63.8828L54.5156 63.875C54.5156 63.5573 54.5938 63.25 54.75 62.9531C54.9062 62.6562 55.1276 62.3906 55.4141 62.1562C55.7005 61.9219 56.0417 61.737 56.4375 61.6016C56.8385 61.4609 57.2786 61.3906 57.7578 61.3906C58.362 61.3906 58.8932 61.4922 59.3516 61.6953C59.8151 61.8984 60.1771 62.2031 60.4375 62.6094C60.6979 63.0156 60.8281 63.526 60.8281 64.1406V68.2266C60.8281 68.5182 60.849 68.8203 60.8906 69.1328C60.9375 69.4453 61.0026 69.7031 61.0859 69.9062V70H60.0938C60.0312 69.8125 59.9818 69.5781 59.9453 69.2969C59.9141 69.0104 59.8984 68.7396 59.8984 68.4844ZM60.1172 65.0781L60.1328 65.7969H58.2969C57.8177 65.7969 57.388 65.8411 57.0078 65.9297C56.6328 66.013 56.3151 66.138 56.0547 66.3047C55.7943 66.4661 55.5938 66.6615 55.4531 66.8906C55.3177 67.1198 55.25 67.3802 55.25 67.6719C55.25 67.974 55.3255 68.25 55.4766 68.5C55.6328 68.75 55.8516 68.9505 56.1328 69.1016C56.4193 69.2474 56.7578 69.3203 57.1484 69.3203C57.6693 69.3203 58.1276 69.224 58.5234 69.0312C58.9245 68.8385 59.2552 68.5859 59.5156 68.2734C59.776 67.9609 59.9505 67.6198 60.0391 67.25L60.4453 67.7891C60.3776 68.0495 60.2526 68.3177 60.0703 68.5938C59.8932 68.8646 59.6615 69.1198 59.375 69.3594C59.0885 69.5938 58.75 69.7865 58.3594 69.9375C57.974 70.0833 57.5365 70.1562 57.0469 70.1562C56.4948 70.1562 56.013 70.0521 55.6016 69.8438C55.1953 69.6354 54.8776 69.3516 54.6484 68.9922C54.4245 68.6276 54.3125 68.2161 54.3125 67.7578C54.3125 67.3411 54.401 66.9688 54.5781 66.6406C54.7552 66.3073 55.0104 66.026 55.3438 65.7969C55.6823 65.5625 56.0885 65.3854 56.5625 65.2656C57.0417 65.1406 57.5781 65.0781 58.1719 65.0781H60.1172ZM64.2656 63.3516V70H63.3359V61.5469H64.2266L64.2656 63.3516ZM64.0547 65.25L63.6406 65.0156C63.6719 64.5156 63.7734 64.0469 63.9453 63.6094C64.1172 63.1719 64.349 62.7865 64.6406 62.4531C64.9375 62.1198 65.2839 61.8594 65.6797 61.6719C66.0807 61.4844 66.5234 61.3906 67.0078 61.3906C67.4297 61.3906 67.8073 61.4479 68.1406 61.5625C68.474 61.6771 68.7578 61.8594 68.9922 62.1094C69.2266 62.3594 69.4036 62.6797 69.5234 63.0703C69.6484 63.4609 69.7109 63.9375 69.7109 64.5V70H68.7734V64.4922C68.7734 63.9089 68.6927 63.4531 68.5312 63.125C68.3698 62.7917 68.1406 62.5547 67.8438 62.4141C67.5469 62.2734 67.1953 62.2031 66.7891 62.2031C66.3411 62.2031 65.9479 62.3021 65.6094 62.5C65.276 62.6927 64.9948 62.9453 64.7656 63.2578C64.5417 63.5651 64.3698 63.8958 64.25 64.25C64.1302 64.599 64.0651 64.9323 64.0547 65.25ZM77.0781 61.5469V70H76.1484V61.5469H77.0781ZM75.9844 59.1016C75.9844 58.9245 76.0391 58.776 76.1484 58.6562C76.263 58.5312 76.4193 58.4688 76.6172 58.4688C76.8151 58.4688 76.9714 58.5312 77.0859 58.6562C77.2057 58.776 77.2656 58.9245 77.2656 59.1016C77.2656 59.2734 77.2057 59.4219 77.0859 59.5469C76.9714 59.6667 76.8151 59.7266 76.6172 59.7266C76.4193 59.7266 76.263 59.6667 76.1484 59.5469C76.0391 59.4219 75.9844 59.2734 75.9844 59.1016ZM80.5156 63.2969V70H79.5781V61.5469H80.4766L80.5156 63.2969ZM80.3438 65.25L79.8906 65.0156C79.9219 64.5156 80.0156 64.0469 80.1719 63.6094C80.3333 63.1719 80.5573 62.7865 80.8438 62.4531C81.1302 62.1198 81.474 61.8594 81.875 61.6719C82.276 61.4844 82.7318 61.3906 83.2422 61.3906C83.6536 61.3906 84.026 61.4479 84.3594 61.5625C84.6979 61.6719 84.9844 61.8464 85.2188 62.0859C85.4583 62.3203 85.6432 62.6276 85.7734 63.0078C85.9036 63.388 85.9688 63.8438 85.9688 64.375V70H85.0391V64.4062C85.0391 63.8438 84.9505 63.4036 84.7734 63.0859C84.6016 62.7682 84.3594 62.5417 84.0469 62.4062C83.7396 62.2708 83.3828 62.2031 82.9766 62.2031C82.4974 62.2031 82.0911 62.3021 81.7578 62.5C81.4297 62.6927 81.1615 62.9453 80.9531 63.2578C80.75 63.5651 80.599 63.8958 80.5 64.25C80.401 64.599 80.349 64.9323 80.3438 65.25ZM85.9609 64.5156L85.3359 64.5312C85.362 64.1198 85.4557 63.7266 85.6172 63.3516C85.7839 62.9766 86.0104 62.6432 86.2969 62.3516C86.5833 62.0547 86.9245 61.8203 87.3203 61.6484C87.7214 61.4766 88.1719 61.3906 88.6719 61.3906C89.1094 61.3906 89.5 61.4505 89.8438 61.5703C90.1875 61.6849 90.4766 61.8698 90.7109 62.125C90.9505 62.375 91.1328 62.6953 91.2578 63.0859C91.3828 63.4766 91.4453 63.9453 91.4453 64.4922V70H90.5078V64.4844C90.5078 63.8854 90.4193 63.4219 90.2422 63.0938C90.0703 62.7604 89.8307 62.5286 89.5234 62.3984C89.2161 62.2682 88.8568 62.2031 88.4453 62.2031C88.0391 62.2083 87.6823 62.2839 87.375 62.4297C87.0677 62.5703 86.8099 62.7578 86.6016 62.9922C86.3984 63.2214 86.2422 63.4688 86.1328 63.7344C86.0286 64 85.9714 64.2604 85.9609 64.5156ZM98.9609 68.4844V64.125C98.9609 63.724 98.8776 63.3776 98.7109 63.0859C98.5443 62.7943 98.2995 62.5703 97.9766 62.4141C97.6536 62.2578 97.2552 62.1797 96.7812 62.1797C96.3438 62.1797 95.9531 62.2578 95.6094 62.4141C95.2708 62.5651 95.0026 62.7708 94.8047 63.0312C94.612 63.2865 94.5156 63.5703 94.5156 63.8828L93.5781 63.875C93.5781 63.5573 93.6562 63.25 93.8125 62.9531C93.9688 62.6562 94.1901 62.3906 94.4766 62.1562C94.763 61.9219 95.1042 61.737 95.5 61.6016C95.901 61.4609 96.3411 61.3906 96.8203 61.3906C97.4245 61.3906 97.9557 61.4922 98.4141 61.6953C98.8776 61.8984 99.2396 62.2031 99.5 62.6094C99.7604 63.0156 99.8906 63.526 99.8906 64.1406V68.2266C99.8906 68.5182 99.9115 68.8203 99.9531 69.1328C100 69.4453 100.065 69.7031 100.148 69.9062V70H99.1562C99.0938 69.8125 99.0443 69.5781 99.0078 69.2969C98.9766 69.0104 98.9609 68.7396 98.9609 68.4844ZM99.1797 65.0781L99.1953 65.7969H97.3594C96.8802 65.7969 96.4505 65.8411 96.0703 65.9297C95.6953 66.013 95.3776 66.138 95.1172 66.3047C94.8568 66.4661 94.6562 66.6615 94.5156 66.8906C94.3802 67.1198 94.3125 67.3802 94.3125 67.6719C94.3125 67.974 94.388 68.25 94.5391 68.5C94.6953 68.75 94.9141 68.9505 95.1953 69.1016C95.4818 69.2474 95.8203 69.3203 96.2109 69.3203C96.7318 69.3203 97.1901 69.224 97.5859 69.0312C97.987 68.8385 98.3177 68.5859 98.5781 68.2734C98.8385 67.9609 99.013 67.6198 99.1016 67.25L99.5078 67.7891C99.4401 68.0495 99.3151 68.3177 99.1328 68.5938C98.9557 68.8646 98.724 69.1198 98.4375 69.3594C98.151 69.5938 97.8125 69.7865 97.4219 69.9375C97.0365 70.0833 96.599 70.1562 96.1094 70.1562C95.5573 70.1562 95.0755 70.0521 94.6641 69.8438C94.2578 69.6354 93.9401 69.3516 93.7109 68.9922C93.487 68.6276 93.375 68.2161 93.375 67.7578C93.375 67.3411 93.4635 66.9688 93.6406 66.6406C93.8177 66.3073 94.0729 66.026 94.4062 65.7969C94.7448 65.5625 95.151 65.3854 95.625 65.2656C96.1042 65.1406 96.6406 65.0781 97.2344 65.0781H99.1797ZM107.961 61.5469H108.828V69.8516C108.828 70.5859 108.688 71.2161 108.406 71.7422C108.13 72.2682 107.737 72.6719 107.227 72.9531C106.721 73.2344 106.125 73.375 105.438 73.375C105.089 73.375 104.729 73.3203 104.359 73.2109C103.995 73.1068 103.648 72.9453 103.32 72.7266C102.997 72.513 102.721 72.2474 102.492 71.9297L103.016 71.3594C103.359 71.776 103.727 72.0807 104.117 72.2734C104.508 72.4714 104.93 72.5703 105.383 72.5703C105.919 72.5703 106.372 72.4635 106.742 72.25C107.117 72.0365 107.401 71.7292 107.594 71.3281C107.792 70.9271 107.891 70.4453 107.891 69.8828V63.4062L107.961 61.5469ZM102.023 65.8594V65.6953C102.023 65.0391 102.096 64.4479 102.242 63.9219C102.393 63.3906 102.609 62.9375 102.891 62.5625C103.172 62.1823 103.513 61.8932 103.914 61.6953C104.32 61.4922 104.779 61.3906 105.289 61.3906C105.779 61.3906 106.214 61.4714 106.594 61.6328C106.974 61.7943 107.302 62.026 107.578 62.3281C107.854 62.6302 108.076 62.9896 108.242 63.4062C108.414 63.8229 108.539 64.2865 108.617 64.7969V66.8828C108.555 67.362 108.44 67.8021 108.273 68.2031C108.107 68.599 107.885 68.9453 107.609 69.2422C107.333 69.5339 107 69.7604 106.609 69.9219C106.224 70.0781 105.779 70.1562 105.273 70.1562C104.768 70.1562 104.315 70.0521 103.914 69.8438C103.513 69.6354 103.172 69.3411 102.891 68.9609C102.609 68.5755 102.393 68.1198 102.242 67.5938C102.096 67.0677 102.023 66.4896 102.023 65.8594ZM102.961 65.6953V65.8594C102.961 66.3542 103.01 66.8125 103.109 67.2344C103.208 67.6562 103.359 68.0234 103.562 68.3359C103.766 68.6484 104.023 68.8932 104.336 69.0703C104.648 69.2474 105.016 69.3359 105.438 69.3359C105.974 69.3359 106.424 69.2344 106.789 69.0312C107.154 68.8229 107.443 68.5495 107.656 68.2109C107.87 67.8672 108.026 67.4922 108.125 67.0859V64.6562C108.068 64.3802 107.979 64.099 107.859 63.8125C107.745 63.526 107.583 63.263 107.375 63.0234C107.172 62.7786 106.911 62.5833 106.594 62.4375C106.281 62.2865 105.901 62.2109 105.453 62.2109C105.026 62.2109 104.654 62.2995 104.336 62.4766C104.023 62.6536 103.766 62.901 103.562 63.2188C103.359 63.5312 103.208 63.8984 103.109 64.3203C103.01 64.7422 102.961 65.2005 102.961 65.6953ZM114.539 70.1562C113.987 70.1562 113.479 70.0547 113.016 69.8516C112.557 69.6484 112.156 69.362 111.812 68.9922C111.474 68.6224 111.211 68.1849 111.023 67.6797C110.841 67.1693 110.75 66.612 110.75 66.0078V65.6719C110.75 65.0208 110.846 64.4323 111.039 63.9062C111.232 63.3802 111.497 62.9297 111.836 62.5547C112.174 62.1797 112.56 61.8932 112.992 61.6953C113.43 61.4922 113.888 61.3906 114.367 61.3906C114.904 61.3906 115.38 61.487 115.797 61.6797C116.214 61.8672 116.562 62.1354 116.844 62.4844C117.13 62.8281 117.346 63.237 117.492 63.7109C117.638 64.1797 117.711 64.6979 117.711 65.2656V65.8359H111.312V65.0391H116.781V64.9297C116.771 64.4557 116.674 64.013 116.492 63.6016C116.315 63.1849 116.049 62.8464 115.695 62.5859C115.341 62.3255 114.898 62.1953 114.367 62.1953C113.971 62.1953 113.607 62.2786 113.273 62.4453C112.945 62.612 112.661 62.8516 112.422 63.1641C112.188 63.4714 112.005 63.8385 111.875 64.2656C111.75 64.6875 111.688 65.1562 111.688 65.6719V66.0078C111.688 66.4766 111.755 66.9141 111.891 67.3203C112.031 67.7214 112.229 68.0755 112.484 68.3828C112.745 68.6901 113.052 68.9297 113.406 69.1016C113.76 69.2734 114.151 69.3594 114.578 69.3594C115.078 69.3594 115.521 69.2682 115.906 69.0859C116.292 68.8984 116.638 68.6042 116.945 68.2031L117.531 68.6562C117.349 68.9271 117.12 69.1771 116.844 69.4062C116.573 69.6354 116.247 69.8177 115.867 69.9531C115.487 70.0885 115.044 70.1562 114.539 70.1562ZM124.391 58V70H123.461V58H124.391ZM124.18 65.25L123.766 65.0156C123.797 64.5156 123.898 64.0469 124.07 63.6094C124.242 63.1719 124.474 62.7865 124.766 62.4531C125.062 62.1198 125.409 61.8594 125.805 61.6719C126.206 61.4844 126.648 61.3906 127.133 61.3906C127.555 61.3906 127.932 61.4479 128.266 61.5625C128.599 61.6771 128.883 61.8594 129.117 62.1094C129.352 62.3594 129.529 62.6797 129.648 63.0703C129.773 63.4609 129.836 63.9375 129.836 64.5V70H128.898V64.4922C128.898 63.9089 128.818 63.4531 128.656 63.125C128.495 62.7917 128.266 62.5547 127.969 62.4141C127.672 62.2734 127.32 62.2031 126.914 62.2031C126.466 62.2031 126.073 62.3021 125.734 62.5C125.401 62.6927 125.12 62.9453 124.891 63.2578C124.667 63.5651 124.495 63.8958 124.375 64.25C124.255 64.599 124.19 64.9323 124.18 65.25ZM135.508 70.1562C134.956 70.1562 134.448 70.0547 133.984 69.8516C133.526 69.6484 133.125 69.362 132.781 68.9922C132.443 68.6224 132.18 68.1849 131.992 67.6797C131.81 67.1693 131.719 66.612 131.719 66.0078V65.6719C131.719 65.0208 131.815 64.4323 132.008 63.9062C132.201 63.3802 132.466 62.9297 132.805 62.5547C133.143 62.1797 133.529 61.8932 133.961 61.6953C134.398 61.4922 134.857 61.3906 135.336 61.3906C135.872 61.3906 136.349 61.487 136.766 61.6797C137.182 61.8672 137.531 62.1354 137.812 62.4844C138.099 62.8281 138.315 63.237 138.461 63.7109C138.607 64.1797 138.68 64.6979 138.68 65.2656V65.8359H132.281V65.0391H137.75V64.9297C137.74 64.4557 137.643 64.013 137.461 63.6016C137.284 63.1849 137.018 62.8464 136.664 62.5859C136.31 62.3255 135.867 62.1953 135.336 62.1953C134.94 62.1953 134.576 62.2786 134.242 62.4453C133.914 62.612 133.63 62.8516 133.391 63.1641C133.156 63.4714 132.974 63.8385 132.844 64.2656C132.719 64.6875 132.656 65.1562 132.656 65.6719V66.0078C132.656 66.4766 132.724 66.9141 132.859 67.3203C133 67.7214 133.198 68.0755 133.453 68.3828C133.714 68.6901 134.021 68.9297 134.375 69.1016C134.729 69.2734 135.12 69.3594 135.547 69.3594C136.047 69.3594 136.49 69.2682 136.875 69.0859C137.26 68.8984 137.607 68.6042 137.914 68.2031L138.5 68.6562C138.318 68.9271 138.089 69.1771 137.812 69.4062C137.542 69.6354 137.216 69.8177 136.836 69.9531C136.456 70.0885 136.013 70.1562 135.508 70.1562ZM141.453 62.9453V70H140.523V61.5469H141.43L141.453 62.9453ZM144.445 61.4844L144.422 62.3438C144.318 62.3281 144.216 62.3151 144.117 62.3047C144.018 62.2943 143.911 62.2891 143.797 62.2891C143.391 62.2891 143.034 62.3646 142.727 62.5156C142.424 62.6615 142.169 62.8672 141.961 63.1328C141.753 63.3932 141.594 63.7005 141.484 64.0547C141.375 64.4036 141.312 64.7786 141.297 65.1797L140.953 65.3125C140.953 64.7604 141.01 64.2474 141.125 63.7734C141.24 63.2995 141.414 62.8854 141.648 62.5312C141.888 62.1719 142.188 61.8932 142.547 61.6953C142.911 61.4922 143.339 61.3906 143.828 61.3906C143.948 61.3906 144.065 61.401 144.18 61.4219C144.299 61.4375 144.388 61.4583 144.445 61.4844ZM149.023 70.1562C148.471 70.1562 147.964 70.0547 147.5 69.8516C147.042 69.6484 146.641 69.362 146.297 68.9922C145.958 68.6224 145.695 68.1849 145.508 67.6797C145.326 67.1693 145.234 66.612 145.234 66.0078V65.6719C145.234 65.0208 145.331 64.4323 145.523 63.9062C145.716 63.3802 145.982 62.9297 146.32 62.5547C146.659 62.1797 147.044 61.8932 147.477 61.6953C147.914 61.4922 148.372 61.3906 148.852 61.3906C149.388 61.3906 149.865 61.487 150.281 61.6797C150.698 61.8672 151.047 62.1354 151.328 62.4844C151.615 62.8281 151.831 63.237 151.977 63.7109C152.122 64.1797 152.195 64.6979 152.195 65.2656V65.8359H145.797V65.0391H151.266V64.9297C151.255 64.4557 151.159 64.013 150.977 63.6016C150.799 63.1849 150.534 62.8464 150.18 62.5859C149.826 62.3255 149.383 62.1953 148.852 62.1953C148.456 62.1953 148.091 62.2786 147.758 62.4453C147.43 62.612 147.146 62.8516 146.906 63.1641C146.672 63.4714 146.49 63.8385 146.359 64.2656C146.234 64.6875 146.172 65.1562 146.172 65.6719V66.0078C146.172 66.4766 146.24 66.9141 146.375 67.3203C146.516 67.7214 146.714 68.0755 146.969 68.3828C147.229 68.6901 147.536 68.9297 147.891 69.1016C148.245 69.2734 148.635 69.3594 149.062 69.3594C149.562 69.3594 150.005 69.2682 150.391 69.0859C150.776 68.8984 151.122 68.6042 151.43 68.2031L152.016 68.6562C151.833 68.9271 151.604 69.1771 151.328 69.4062C151.057 69.6354 150.732 69.8177 150.352 69.9531C149.971 70.0885 149.529 70.1562 149.023 70.1562Z" fill="#717171"/>
<path d="M97.9 0H57.1C54.2873 0 52 2.29856 52 5.125V35.875C52 38.7014 54.2873 41 57.1 41H97.9C100.713 41 103 38.7014 103 35.875V5.125C103 2.29856 100.713 0 97.9 0ZM63.475 7.6875C64.4895 7.6875 65.4624 8.09246 66.1797 8.81331C66.897 9.53415 67.3 10.5118 67.3 11.5312C67.3 12.5507 66.897 13.5283 66.1797 14.2492C65.4624 14.97 64.4895 15.375 63.475 15.375C62.4605 15.375 61.4876 14.97 60.7703 14.2492C60.053 13.5283 59.65 12.5507 59.65 11.5312C59.65 10.5118 60.053 9.53415 60.7703 8.81331C61.4876 8.09246 62.4605 7.6875 63.475 7.6875ZM77.5 33.3125H59.65L69.85 20.5L73.675 25.625L81.325 15.375L95.35 33.3125H77.5Z" fill="#BBBBBB"/>
</svg>
