<svg width="53" height="32" viewBox="0 0 53 32" fill="none" xmlns="http://www.w3.org/2000/svg">
<path d="M31.2194 13.2793C31.0417 13.1004 30.8012 13 30.5506 13C30.3 13 30.0596 13.1004 29.8818 13.2793L26.4763 16.6796L23.1182 13.2793C22.9404 13.1004 22.7 13 22.4494 13C22.1988 13 21.9583 13.1004 21.7806 13.2793C21.6917 13.3686 21.6211 13.4748 21.573 13.5919C21.5248 13.7089 21.5 13.8345 21.5 13.9613C21.5 14.0881 21.5248 14.2136 21.573 14.3307C21.6211 14.4477 21.6917 14.554 21.7806 14.6433L25.8028 18.7159C25.8909 18.8059 25.9959 18.8774 26.1115 18.9261C26.2271 18.9749 26.3511 19 26.4763 19C26.6015 19 26.7255 18.9749 26.8411 18.9261C26.9567 18.8774 27.0616 18.8059 27.1498 18.7159L31.2194 14.6433C31.3083 14.554 31.3789 14.4477 31.427 14.3307C31.4752 14.2136 31.5 14.0881 31.5 13.9613C31.5 13.8345 31.4752 13.7089 31.427 13.5919C31.3789 13.4748 31.3083 13.3686 31.2194 13.2793Z" fill="#05111A"/>
</svg>
