<svg width="254" height="254" viewBox="0 0 254 254" fill="none" xmlns="http://www.w3.org/2000/svg">
<g filter="url(#filter0_d_0_107)">
<circle cx="127" cy="119" r="100" fill="url(#paint0_linear_0_107)"/>
<circle cx="127" cy="119" r="100" stroke="#4310AE" stroke-width="3"/>
</g>
<mask id="mask0_0_107" style="mask-type:alpha" maskUnits="userSpaceOnUse" x="27" y="19" width="200" height="200">
<circle cx="127" cy="119" r="99.5" fill="#339AF0" stroke="white"/>
</mask>
<g mask="url(#mask0_0_107)">
<path d="M73.9907 149.244H76.9931C77.6321 149.244 78.1865 149.347 78.6562 149.555C79.126 149.762 79.4878 150.069 79.7417 150.475C79.9998 150.877 80.1289 151.372 80.1289 151.96C80.1289 152.396 80.0358 152.792 79.8496 153.147C79.6676 153.503 79.4158 153.801 79.0942 154.042C78.7726 154.279 78.4002 154.442 77.977 154.531L77.7041 154.633H74.4985L74.4858 153.966H77.1709C77.6533 153.966 78.0553 153.873 78.3769 153.687C78.6986 153.501 78.9398 153.255 79.1006 152.951C79.2656 152.642 79.3481 152.312 79.3481 151.96C79.3481 151.542 79.2571 151.18 79.0752 150.875C78.8974 150.566 78.633 150.329 78.2817 150.164C77.9305 149.999 77.501 149.917 76.9931 149.917H74.7715V158.486H73.9907V149.244ZM79.6973 158.486L77.3042 154.354L78.1421 154.347L80.5288 158.403V158.486H79.6973ZM82.9409 151.618V158.486H82.1855V151.618H82.9409ZM82.0522 149.631C82.0522 149.487 82.0967 149.366 82.1855 149.269C82.2786 149.167 82.4056 149.117 82.5664 149.117C82.7272 149.117 82.8542 149.167 82.9473 149.269C83.0446 149.366 83.0932 149.487 83.0932 149.631C83.0932 149.771 83.0446 149.891 82.9473 149.993C82.8542 150.09 82.7272 150.139 82.5664 150.139C82.4056 150.139 82.2786 150.09 82.1855 149.993C82.0967 149.891 82.0522 149.771 82.0522 149.631ZM87.5493 157.959C87.8709 157.959 88.1714 157.9 88.4507 157.781C88.7342 157.659 88.9669 157.479 89.1489 157.242C89.3351 157 89.4409 156.706 89.4663 156.359H90.1899C90.1688 156.795 90.0355 157.185 89.79 157.527C89.5488 157.866 89.2314 158.132 88.8379 158.327C88.4486 158.518 88.019 158.613 87.5493 158.613C87.0711 158.613 86.6479 158.526 86.2798 158.353C85.9158 158.179 85.6112 157.938 85.3657 157.629C85.1203 157.316 84.9341 156.952 84.8071 156.537C84.6844 156.118 84.623 155.667 84.623 155.185V154.918C84.623 154.436 84.6844 153.987 84.8071 153.573C84.9341 153.154 85.1203 152.79 85.3657 152.481C85.6112 152.168 85.9158 151.924 86.2798 151.751C86.6437 151.577 87.0648 151.491 87.543 151.491C88.0338 151.491 88.4739 151.59 88.8633 151.789C89.2568 151.988 89.57 152.269 89.8027 152.633C90.0397 152.997 90.1688 153.429 90.1899 153.928H89.4663C89.4451 153.56 89.3478 153.243 89.1743 152.976C89.0008 152.709 88.7723 152.504 88.4888 152.36C88.2052 152.216 87.89 152.145 87.543 152.145C87.1536 152.145 86.8214 152.221 86.5464 152.373C86.2713 152.521 86.047 152.726 85.8735 152.989C85.7042 153.247 85.5794 153.543 85.499 153.877C85.4186 154.208 85.3784 154.555 85.3784 154.918V155.185C85.3784 155.553 85.4165 155.904 85.4927 156.239C85.5731 156.569 85.6979 156.863 85.8672 157.121C86.0407 157.379 86.265 157.584 86.54 157.737C86.8193 157.885 87.1557 157.959 87.5493 157.959ZM92.4751 148.736V158.486H91.7197V148.736H92.4751ZM96.7851 151.618L93.5732 154.804L92.2085 156.125L92.0942 155.382L93.1924 154.195L95.8266 151.618H96.7851ZM96.125 158.486L93.2558 154.918L93.6748 154.265L97.039 158.486H96.125ZM105.443 157.254V153.712C105.443 153.387 105.376 153.105 105.24 152.868C105.105 152.631 104.906 152.449 104.644 152.322C104.381 152.195 104.057 152.132 103.672 152.132C103.317 152.132 102.999 152.195 102.72 152.322C102.445 152.445 102.227 152.612 102.066 152.824C101.91 153.031 101.832 153.262 101.832 153.516L101.07 153.509C101.07 153.251 101.133 153.001 101.26 152.76C101.387 152.519 101.567 152.303 101.8 152.113C102.033 151.922 102.31 151.772 102.631 151.662C102.957 151.548 103.315 151.491 103.704 151.491C104.195 151.491 104.627 151.573 104.999 151.738C105.376 151.903 105.67 152.151 105.881 152.481C106.093 152.811 106.199 153.226 106.199 153.725V157.045C106.199 157.282 106.216 157.527 106.249 157.781C106.288 158.035 106.34 158.245 106.408 158.41V158.486H105.602C105.551 158.333 105.511 158.143 105.481 157.915C105.456 157.682 105.443 157.462 105.443 157.254ZM105.621 154.487L105.634 155.071H104.142C103.753 155.071 103.404 155.107 103.095 155.179C102.79 155.246 102.532 155.348 102.32 155.483C102.109 155.615 101.946 155.773 101.832 155.959C101.722 156.146 101.666 156.357 101.666 156.594C101.666 156.84 101.728 157.064 101.851 157.267C101.978 157.47 102.155 157.633 102.384 157.756C102.617 157.874 102.892 157.934 103.209 157.934C103.632 157.934 104.005 157.855 104.326 157.699C104.652 157.542 104.921 157.337 105.132 157.083C105.344 156.829 105.486 156.552 105.558 156.251L105.888 156.689C105.833 156.901 105.731 157.119 105.583 157.343C105.439 157.563 105.251 157.771 105.018 157.965C104.785 158.156 104.51 158.312 104.193 158.435C103.88 158.554 103.524 158.613 103.126 158.613C102.678 158.613 102.286 158.528 101.952 158.359C101.622 158.19 101.364 157.959 101.178 157.667C100.996 157.371 100.905 157.036 100.905 156.664C100.905 156.326 100.977 156.023 101.121 155.756C101.264 155.486 101.472 155.257 101.743 155.071C102.018 154.88 102.348 154.736 102.733 154.639C103.122 154.538 103.558 154.487 104.041 154.487H105.621ZM108.992 153.084V158.486H108.236V151.618H108.96L108.992 153.084ZM108.82 154.626L108.484 154.436C108.509 154.03 108.592 153.649 108.731 153.293C108.871 152.938 109.059 152.625 109.296 152.354C109.538 152.083 109.819 151.872 110.141 151.719C110.466 151.567 110.826 151.491 111.22 151.491C111.562 151.491 111.869 151.537 112.14 151.63C112.411 151.723 112.642 151.872 112.832 152.075C113.022 152.278 113.166 152.538 113.264 152.855C113.365 153.173 113.416 153.56 113.416 154.017V158.486H112.654V154.011C112.654 153.537 112.589 153.167 112.458 152.9C112.326 152.629 112.14 152.437 111.899 152.322C111.658 152.208 111.372 152.151 111.042 152.151C110.678 152.151 110.359 152.231 110.083 152.392C109.813 152.549 109.584 152.754 109.398 153.008C109.216 153.257 109.076 153.526 108.979 153.814C108.882 154.097 108.829 154.368 108.82 154.626ZM119.846 157.153V148.736H120.608V158.486H119.897L119.846 157.153ZM115.079 155.122V154.988C115.079 154.455 115.14 153.975 115.263 153.547C115.386 153.116 115.562 152.748 115.79 152.443C116.023 152.134 116.302 151.899 116.628 151.738C116.954 151.573 117.322 151.491 117.732 151.491C118.134 151.491 118.49 151.556 118.799 151.688C119.108 151.819 119.372 152.007 119.592 152.252C119.817 152.498 119.996 152.79 120.132 153.128C120.271 153.467 120.373 153.844 120.437 154.258V155.953C120.386 156.342 120.293 156.7 120.157 157.026C120.022 157.347 119.842 157.629 119.618 157.87C119.393 158.107 119.123 158.291 118.805 158.422C118.492 158.549 118.13 158.613 117.72 158.613C117.313 158.613 116.947 158.528 116.622 158.359C116.296 158.19 116.019 157.951 115.79 157.642C115.562 157.328 115.386 156.958 115.263 156.531C115.14 156.103 115.079 155.634 115.079 155.122ZM115.841 154.988V155.122C115.841 155.524 115.881 155.896 115.961 156.239C116.042 156.582 116.165 156.88 116.33 157.134C116.495 157.388 116.704 157.587 116.958 157.73C117.212 157.874 117.512 157.946 117.859 157.946C118.295 157.946 118.661 157.864 118.958 157.699C119.254 157.529 119.491 157.307 119.668 157.032C119.846 156.753 119.975 156.448 120.056 156.118V154.144C120.005 153.92 119.931 153.691 119.833 153.458C119.736 153.226 119.603 153.012 119.434 152.817C119.269 152.618 119.057 152.46 118.799 152.341C118.545 152.219 118.236 152.157 117.872 152.157C117.521 152.157 117.218 152.229 116.964 152.373C116.71 152.517 116.499 152.718 116.33 152.976C116.165 153.23 116.042 153.528 115.961 153.871C115.881 154.214 115.841 154.586 115.841 154.988ZM126.2 149.244H126.987L130.402 157.381L133.824 149.244H134.604L130.701 158.486H130.104L126.2 149.244ZM125.959 149.244H126.651L126.733 154.449V158.486H125.959V149.244ZM134.166 149.244H134.858V158.486H134.078V154.449L134.166 149.244ZM136.61 155.16V154.95C136.61 154.451 136.682 153.99 136.826 153.566C136.97 153.143 137.175 152.777 137.442 152.468C137.713 152.159 138.036 151.92 138.413 151.751C138.79 151.577 139.209 151.491 139.67 151.491C140.135 151.491 140.556 151.577 140.933 151.751C141.31 151.92 141.633 152.159 141.904 152.468C142.175 152.777 142.382 153.143 142.526 153.566C142.67 153.99 142.742 154.451 142.742 154.95V155.16C142.742 155.659 142.67 156.12 142.526 156.543C142.382 156.962 142.175 157.326 141.904 157.635C141.638 157.944 141.316 158.185 140.939 158.359C140.563 158.528 140.144 158.613 139.683 158.613C139.217 158.613 138.796 158.528 138.419 158.359C138.043 158.185 137.719 157.944 137.448 157.635C137.177 157.326 136.97 156.962 136.826 156.543C136.682 156.12 136.61 155.659 136.61 155.16ZM137.366 154.95V155.16C137.366 155.536 137.416 155.894 137.518 156.232C137.62 156.567 137.768 156.865 137.962 157.127C138.157 157.386 138.398 157.589 138.686 157.737C138.974 157.885 139.306 157.959 139.683 157.959C140.055 157.959 140.383 157.885 140.666 157.737C140.954 157.589 141.195 157.386 141.39 157.127C141.585 156.865 141.731 156.567 141.828 156.232C141.93 155.894 141.98 155.536 141.98 155.16V154.95C141.98 154.578 141.93 154.224 141.828 153.89C141.731 153.556 141.583 153.257 141.384 152.995C141.189 152.733 140.948 152.525 140.66 152.373C140.372 152.221 140.042 152.145 139.67 152.145C139.298 152.145 138.967 152.221 138.68 152.373C138.396 152.525 138.155 152.733 137.956 152.995C137.761 153.257 137.613 153.556 137.512 153.89C137.414 154.224 137.366 154.578 137.366 154.95ZM145.072 152.754V158.486H144.316V151.618H145.053L145.072 152.754ZM147.503 151.567L147.484 152.265C147.399 152.252 147.317 152.242 147.236 152.233C147.156 152.225 147.069 152.221 146.976 152.221C146.646 152.221 146.356 152.282 146.106 152.405C145.861 152.523 145.654 152.69 145.484 152.906C145.315 153.118 145.186 153.368 145.097 153.655C145.008 153.939 144.958 154.243 144.945 154.569L144.666 154.677C144.666 154.229 144.712 153.812 144.805 153.427C144.898 153.042 145.04 152.705 145.23 152.417C145.425 152.125 145.668 151.899 145.96 151.738C146.257 151.573 146.604 151.491 147.001 151.491C147.099 151.491 147.194 151.499 147.287 151.516C147.384 151.529 147.456 151.546 147.503 151.567ZM151.61 151.618V152.24H148.169V151.618H151.61ZM149.433 149.853H150.188V156.816C150.188 157.134 150.23 157.373 150.315 157.534C150.4 157.694 150.51 157.802 150.645 157.857C150.78 157.912 150.926 157.94 151.083 157.94C151.197 157.94 151.307 157.934 151.413 157.921C151.519 157.904 151.614 157.887 151.699 157.87L151.73 158.511C151.637 158.541 151.517 158.564 151.369 158.581C151.221 158.602 151.072 158.613 150.924 158.613C150.632 158.613 150.374 158.56 150.15 158.454C149.926 158.344 149.75 158.158 149.623 157.896C149.496 157.629 149.433 157.267 149.433 156.81V149.853ZM155.241 157.8L157.38 151.618H158.199L155.291 159.59C155.232 159.747 155.156 159.92 155.063 160.111C154.974 160.301 154.856 160.483 154.708 160.657C154.564 160.834 154.382 160.978 154.162 161.088C153.946 161.203 153.681 161.26 153.368 161.26C153.288 161.26 153.184 161.249 153.057 161.228C152.934 161.211 152.846 161.194 152.791 161.177L152.784 160.536C152.831 160.549 152.898 160.559 152.987 160.568C153.076 160.576 153.138 160.581 153.171 160.581C153.446 160.581 153.677 160.534 153.863 160.441C154.054 160.348 154.212 160.208 154.339 160.022C154.466 159.84 154.578 159.611 154.676 159.336L155.241 157.8ZM153.241 151.618L155.431 157.515L155.634 158.308L155.082 158.619L152.416 151.618H153.241ZM165.771 149.796L162.572 158.486H161.76L165.251 149.244H165.816L165.771 149.796ZM168.679 158.486L165.473 149.796L165.429 149.244H165.994L169.491 158.486H168.679ZM168.107 155.223V155.896H163.201V155.223H168.107ZM174.004 154.722H171.37V154.055H174.004C174.555 154.055 175.001 153.966 175.344 153.789C175.691 153.607 175.943 153.361 176.099 153.052C176.26 152.743 176.34 152.396 176.34 152.011C176.34 151.635 176.26 151.288 176.099 150.97C175.943 150.653 175.691 150.399 175.344 150.208C175.001 150.014 174.555 149.917 174.004 149.917H171.643V158.486H170.862V149.244H174.004C174.681 149.244 175.251 149.36 175.712 149.593C176.177 149.826 176.529 150.149 176.766 150.564C177.003 150.979 177.121 151.457 177.121 151.999C177.121 152.566 177.003 153.054 176.766 153.465C176.529 153.871 176.18 154.182 175.718 154.398C175.257 154.614 174.686 154.722 174.004 154.722ZM179.825 149.244V158.486H179.044V149.244H179.825Z" fill="#200062"/>
<path d="M136.611 133.869L129.28 126.544L121.949 133.869" fill="#1FDCC1"/>
<path d="M89.5554 112.095C89.4679 111.523 89.4248 110.945 89.4265 110.366V94.8223C89.4149 94.129 89.1311 93.468 88.6363 92.9817C88.1415 92.4955 87.4753 92.223 86.7814 92.223C86.0874 92.223 85.4212 92.4955 84.9264 92.9817C84.4316 93.468 84.1478 94.129 84.1362 94.8223V110.545C84.1362 111.076 84.165 111.591 84.2099 112.095H89.5554Z" fill="#200062"/>
<path d="M109.927 112.095C109.973 111.576 110.001 111.047 110.001 110.5V94.8223C110.001 94.1214 109.722 93.4492 109.226 92.9536C108.73 92.458 108.057 92.1796 107.356 92.1796C106.655 92.1796 105.982 92.458 105.486 92.9536C104.99 93.4492 104.711 94.1214 104.711 94.8223V110.366C104.713 110.945 104.669 111.523 104.582 112.095H109.927Z" fill="#200062"/>
<path d="M75.0825 112.095V94.8223C75.0803 94.1218 74.8008 93.4506 74.305 92.9554C73.8091 92.4603 73.1373 92.1813 72.4362 92.1796C71.0022 92.1796 69.8364 93.3886 69.8364 94.8223V112.095H75.0825Z" fill="#200062"/>
<path d="M128.697 109.695C131.191 110.34 133.472 110.923 134.658 112.095H140.721C139.856 106.888 134.556 105.512 130.042 104.364C126.5 103.468 123.452 102.706 123.452 100.377C123.452 98.1373 125.425 96.6588 128.965 96.6588C131.438 96.67 133.853 97.4019 135.915 98.7647C136.318 99.0579 136.805 99.2147 137.304 99.2123C137.956 99.2066 138.58 98.9452 139.041 98.4844C139.503 98.0236 139.764 97.4002 139.77 96.7486C139.772 96.3447 139.67 95.9472 139.473 95.5942C139.277 95.2411 138.993 94.9444 138.649 94.7325C135.735 92.8961 132.911 92 129.414 92C122.421 92 118.072 95.8083 118.072 100.735C118.072 107.051 123.81 108.485 128.697 109.695Z" fill="#200062"/>
<path d="M148.063 97.0623H155.056V112.095H160.302V97.0623H167.295C168.548 97.0623 169.626 96.0315 169.626 94.7797C169.623 94.1629 169.376 93.5723 168.94 93.1362C168.503 92.7001 167.912 92.4538 167.295 92.4507H148.062C147.444 92.4538 146.853 92.7001 146.417 93.1362C145.98 93.5723 145.733 94.1629 145.73 94.7797C145.731 96.0359 146.807 97.0623 148.063 97.0623Z" fill="#200062"/>
<path d="M195.852 92.449H176.618C176.001 92.4523 175.41 92.6988 174.974 93.1348C174.538 93.5709 174.291 94.1614 174.288 94.778C174.288 96.0298 175.363 97.0607 176.618 97.0607H183.612V112.096H188.861V97.0629H195.855C197.108 97.0629 198.186 96.032 198.186 94.7803C198.184 94.1626 197.937 93.571 197.499 93.1343C197.062 92.6977 196.47 92.4514 195.852 92.449Z" fill="#200062"/>
<path d="M69.7978 113.51C69.5185 116.368 67.573 118.205 64.5915 118.205C63.3423 118.22 62.1197 117.844 61.0949 117.13C60.7181 116.898 60.2847 116.774 59.8421 116.772C59.5352 116.769 59.2308 116.828 58.9467 116.944C58.6626 117.06 58.4045 117.232 58.1873 117.448C57.9701 117.665 57.7982 117.923 57.6817 118.207C57.5651 118.49 57.5062 118.794 57.5084 119.101C57.5084 119.907 57.9114 120.58 58.54 121.027C60.4678 122.326 62.6195 122.864 64.9953 122.864C70.5958 122.864 74.7918 119.874 75.0571 113.512L69.7978 113.51Z" fill="#200062"/>
<path d="M183.612 113.51V119.952C183.614 120.653 183.894 121.324 184.39 121.819C184.885 122.314 185.557 122.593 186.258 122.595C187.693 122.595 188.858 121.385 188.858 119.952V113.51H183.612Z" fill="#200062"/>
<path d="M155.057 113.51V119.952C155.059 120.653 155.338 121.324 155.834 121.819C156.33 122.314 157.001 122.593 157.702 122.595C159.136 122.595 160.302 121.385 160.302 119.952V113.51H155.057Z" fill="#200062"/>
<path d="M104.246 113.51C103.288 116.431 100.857 118.205 97.0924 118.205C93.2907 118.205 90.8522 116.432 89.8943 113.51H84.4028C85.4411 119.194 89.6268 122.861 97.0924 122.861C104.512 122.861 108.691 119.231 109.733 113.51H104.246Z" fill="#200062"/>
<path d="M135.441 113.51C135.487 113.713 135.512 113.92 135.515 114.129C135.515 116.1 133.811 118.205 129.507 118.205C126.369 118.205 123.814 117.13 121.752 115.607C121.312 115.279 120.776 115.106 120.228 115.115C118.882 115.115 117.762 116.234 117.762 117.623C117.765 118.004 117.856 118.381 118.026 118.722C118.197 119.064 118.444 119.362 118.748 119.594C121.393 121.61 124.845 122.864 129.286 122.864C137.356 122.864 140.855 118.608 140.855 113.636C140.855 113.593 140.855 113.553 140.852 113.51H135.441Z" fill="#200062"/>
<circle cx="218.526" cy="186.797" r="12.0593" fill="#7048E8" stroke="white" stroke-width="3"/>
</g>
<circle cx="198.333" cy="197" r="15.1667" fill="#1FDCC1" stroke="#4310AE" stroke-width="3"/>
<defs>
<filter id="filter0_d_0_107" x="0.5" y="0.532476" width="253" height="253" filterUnits="userSpaceOnUse" color-interpolation-filters="sRGB">
<feFlood flood-opacity="0" result="BackgroundImageFix"/>
<feColorMatrix in="SourceAlpha" type="matrix" values="0 0 0 0 0 0 0 0 0 0 0 0 0 0 0 0 0 0 127 0" result="hardAlpha"/>
<feOffset dy="8.03248"/>
<feGaussianBlur stdDeviation="12.5"/>
<feColorMatrix type="matrix" values="0 0 0 0 0.346279 0 0 0 0 0.215677 0 0 0 0 0.5125 0 0 0 0.17 0"/>
<feBlend mode="normal" in2="BackgroundImageFix" result="effect1_dropShadow_0_107"/>
<feBlend mode="normal" in="SourceGraphic" in2="effect1_dropShadow_0_107" result="shape"/>
</filter>
<linearGradient id="paint0_linear_0_107" x1="33.579" y1="32.1578" x2="278.781" y2="129.474" gradientUnits="userSpaceOnUse">
<stop stop-color="white"/>
<stop offset="1" stop-color="white"/>
</linearGradient>
</defs>
</svg>
